<svg width="403" height="60" viewBox="0 0 403 60" fill="none" xmlns="http://www.w3.org/2000/svg">
<path d="M141.623 45.4224C141.623 38.9695 141.036 32.5165 139.779 26.1473C138.941 21.7056 137.768 17.4316 135.337 13.5766C131.65 7.37503 125.616 5.61511 118.744 7.29121C113.464 8.63209 109.861 12.3195 107.011 16.7612C102.905 23.1303 100.642 30.2538 99.5526 37.7124C99.0497 41.3998 98.7145 45.0872 98.0441 48.7746C97.7089 50.4507 97.5413 52.2106 97.7927 53.9705C98.0441 55.7304 97.9603 56.0656 99.7202 56.0656C100.474 56.0656 101.229 56.3171 101.983 56.4847C103.491 56.7361 103.827 56.4009 103.994 54.8924C104.078 53.7191 104.246 52.462 104.329 51.2888C104.413 49.6127 104.581 49.6127 106.257 49.6127C111.285 49.6127 116.314 49.2775 121.342 48.8584C121.761 48.8584 122.18 48.8584 122.683 48.7746C123.437 48.6908 123.688 49.026 123.688 49.7803C123.688 50.8697 123.688 52.043 123.688 53.1325C123.688 54.0543 123.688 55.06 123.94 55.9819C124.359 57.658 124.778 57.9932 126.621 57.8255C130.477 57.4065 134.332 57.0713 138.27 57.0713C138.773 57.0713 139.36 57.0713 139.946 56.9875C140.701 56.9037 141.12 56.4847 141.371 55.7304C141.539 55.2276 141.623 54.641 141.623 54.0543C141.623 51.205 141.623 48.2718 141.623 45.4224ZM105.67 42.6569C106.592 36.5391 107.933 30.589 110.112 24.8903C111.034 22.7951 112.123 20.7 113.548 18.9401C115.056 17.0964 116.565 17.0964 118.157 18.8563C119.163 20.0296 119.833 21.4543 120.336 22.9627C121.342 25.8121 121.928 28.7453 122.431 31.6784C122.766 33.8574 122.934 36.0363 123.185 38.2152C123.353 39.1371 123.102 39.5561 122.096 39.8075C116.9 40.7294 111.62 41.735 106.425 42.7407C106.257 42.7407 106.089 42.7407 105.67 42.6569Z" fill="#00BC7D"/>
<path d="M158.3 34.7791C157.964 31.2593 157.713 27.6557 157.378 24.1359C157.126 21.5379 157.21 18.94 157.126 16.4258C157.126 16.0068 157.126 15.6716 157.126 15.2525C157.126 14.5821 156.791 14.2469 156.204 14.0793C153.774 13.4926 151.344 12.7384 148.913 12.1518C147.824 11.8165 147.405 12.068 147.07 13.0736C146.818 13.9117 146.735 14.7497 146.651 15.6716C145.394 27.4043 145.729 39.2207 147.07 50.9534C147.321 53.2162 147.824 55.3951 149.249 57.4064C153.02 55.8979 156.875 54.3056 160.646 52.6295C161.4 52.2943 161.317 51.7077 161.4 51.1211C161.568 49.0259 161.652 46.9308 161.903 44.9195C162.406 40.1426 163.244 35.4495 164.082 30.7565C164.585 27.8233 165.004 24.9739 166.093 22.2083C166.512 21.2865 166.848 20.4485 167.518 19.6942C168.356 18.6885 169.11 18.7723 169.948 19.778C170.535 20.4484 170.87 21.2865 171.122 22.1245C171.96 24.8901 172.127 27.6557 172.127 30.505C172.044 36.958 171.457 43.2434 169.781 49.5288C169.278 51.3725 169.613 51.8753 171.373 52.4619C175.144 53.8028 178.832 55.1437 182.519 56.4846C184.279 57.0712 184.363 56.9874 184.782 55.1437C185.285 53.1324 185.704 51.0373 186.039 48.9421C187.128 42.5729 188.134 36.2876 187.715 29.8346C187.296 24.5549 186.709 19.359 185.033 14.3307C184.028 11.3137 182.268 8.79954 179.67 6.95584C176.569 4.86071 172.546 4.27408 168.943 7.03964C167.77 7.96149 166.68 9.05097 165.758 10.2242C163.495 13.0736 162.238 16.4258 161.317 19.8618C159.976 24.8063 159.138 29.7508 158.3 34.7791Z" fill="#00BC7D"/>
<path d="M207.493 52.8809C207.409 52.7133 207.409 52.5457 207.409 52.2943C206.404 45.7575 205.398 39.2207 204.728 32.6001C204.392 28.9127 203.889 25.2253 203.554 21.5379C203.47 20.4484 202.968 19.9456 201.962 19.8618C199.783 19.6104 197.604 19.2751 195.425 19.0237C194.084 18.9399 194.084 18.9399 193.833 20.3646C193.665 21.5379 193.581 22.7111 193.498 23.8844C192.827 29.4155 192.073 34.9466 192.157 40.5616C192.157 42.9919 192.157 45.3385 192.157 47.685C192.157 50.1153 192.492 52.4619 192.911 54.8084C193.33 56.6521 193.581 56.9035 195.509 56.6521C198.861 56.2331 202.297 55.6465 205.733 55.2275C207.577 55.0598 207.744 55.0598 207.493 52.8809ZM198.694 16.0067C199.783 16.0905 200.789 15.7553 201.711 15.0011C203.973 12.9898 204.979 10.4756 204.644 7.45863C204.308 4.86068 202.632 3.5198 200.286 2.59795C197.353 1.50848 194.922 2.34653 193.498 5.11209C192.743 6.62058 192.408 8.29669 192.492 10.0566C192.576 13.6602 194.922 15.9229 198.694 16.0067Z" fill="#00BC7D"/>
<path d="M224.505 33.606C223.919 33.1031 223.919 32.6841 223.835 32.2651C222.494 25.8121 221.572 19.3591 221.153 12.7385C221.069 10.811 220.986 10.811 219.142 10.6434C218.639 10.5596 218.136 10.4758 217.717 10.3082C216.712 10.1406 215.706 9.80538 214.7 9.63778C213.611 9.47016 213.443 9.55397 213.276 10.7272C213.024 12.4033 212.773 13.9956 212.605 15.5879C211.935 25.4769 211.264 35.3659 212.94 45.2549C213.527 48.8585 214.03 52.4621 215.203 55.9819C215.622 57.3228 215.706 57.4066 217.047 56.9037C221.153 55.479 225.26 53.9706 229.45 52.5459C230.204 52.2945 230.456 51.8755 230.204 51.0374C229.618 48.6909 229.282 46.3443 229.115 43.9978C228.863 39.4723 229.031 35.0307 229.282 30.589C229.366 28.1587 229.701 25.7283 230.288 23.3818C230.623 22.0409 231.21 20.7 232.383 19.862C233.892 18.6887 234.813 18.9401 235.316 20.7838C235.484 21.1191 235.568 21.5381 235.568 21.8733C236.238 25.2255 236.406 28.5777 236.07 32.0137C235.568 37.461 234.981 42.9083 234.394 48.2718C234.311 49.0261 234.059 49.6965 234.059 50.367C233.975 51.7917 234.394 52.2945 235.819 52.5459C238.836 53.2163 241.937 53.8868 245.038 54.5572C246.714 54.8924 246.797 54.8924 247.216 53.2163C247.803 50.4508 248.39 47.6014 248.725 44.752C249.395 39.3885 250.652 34.2764 251.826 29.0805C252.077 28.0749 252.329 27.0692 252.999 26.315C253.586 25.7283 254.088 25.7283 254.591 26.2312C255.346 26.9016 255.681 27.7396 255.932 28.6615C256.686 31.5947 257.022 34.6117 257.105 37.6286C257.189 42.8245 257.022 48.0204 256.016 53.2163C255.765 54.7248 255.932 55.06 257.524 55.3115C261.044 55.9819 264.648 56.3171 268.168 56.6523C270.095 56.82 270.263 56.6523 270.43 54.8086C270.766 52.1269 270.933 49.5289 271.101 46.931C271.687 38.8857 271.604 30.9242 270.598 23.0466C270.179 20.1134 269.509 17.3478 268.084 14.7499C266.575 12.1519 263.977 11.0625 261.044 11.7329C257.943 12.571 255.681 14.6661 253.837 17.0964C252.161 19.2754 251.155 21.7895 250.317 24.3874C250.233 24.8065 250.233 25.3931 249.647 25.6445C249.479 24.2198 249.312 22.879 249.144 21.4543C248.557 18.1021 248.055 14.6661 246.378 11.5653C244.786 8.54834 242.607 6.2856 239.255 5.27993C236.909 4.6933 234.73 5.02852 232.802 6.45321C230.372 8.21311 228.779 10.5596 227.69 13.3252C226.098 17.0126 225.427 20.9515 225.008 24.9741C224.673 27.7397 224.673 30.589 224.505 33.606Z" fill="#00BC7D"/>
<path d="M301.103 46.8472C301.27 48.7747 300.935 50.1994 300.684 51.7079C300.516 53.1325 300.516 53.2164 301.689 53.6354C304.79 54.641 307.891 55.4791 310.908 56.4848C311.411 56.6524 311.746 56.5686 311.914 56.0657C312.165 55.3115 312.584 54.6411 312.752 53.9706C313.841 49.7804 314.595 45.5901 314.847 41.3161C315.098 35.6173 314.595 29.9186 313.506 24.3037C312.584 19.7782 311.159 15.5042 308.226 11.9844C304.539 7.45889 300.097 4.77713 293.979 5.69898C286.772 6.87225 281.995 10.8111 279.481 17.5993C278.895 18.9402 279.062 19.1078 280.487 19.443C281.325 19.6944 281.493 19.1078 281.828 18.7725C284.677 15.4203 290.543 14.5823 293.979 17.1802C297.918 20.281 299.594 24.6389 300.516 29.4158C299.93 28.9129 299.511 28.4101 299.092 27.8235C298.086 26.4826 296.829 25.3931 295.237 24.5551C291.549 22.6276 287.946 22.7952 284.51 25.3931C282.833 26.734 281.493 28.2425 280.403 30.0024C277.386 34.9469 275.794 40.3104 275.794 46.0929C275.71 48.5233 276.045 50.8698 277.051 53.1326C278.559 56.4009 281.241 57.9932 284.845 57.8256C287.275 57.7418 289.37 56.82 291.298 55.4791C292.639 54.5572 293.896 53.4678 295.237 52.4621C297.248 50.8698 299.008 48.9423 301.103 46.8472ZM287.694 47.9367C288.281 43.9978 289.454 39.8076 292.471 36.3716C293.058 35.7011 293.728 35.1983 294.566 34.7793C295.823 34.025 296.996 34.1088 297.918 35.1983C299.092 36.623 299.846 38.2991 300.013 40.1428C300.097 40.8132 299.93 41.3999 299.594 41.9027C296.996 45.2549 293.812 47.8528 290.208 49.948C290.124 49.948 290.124 50.0318 290.041 50.0318C288.281 50.786 287.61 50.367 287.694 47.9367Z" fill="#00BC7D"/>
<path d="M344.346 48.7746C342.167 49.6127 340.072 50.1993 337.809 49.8641C335.295 49.5289 333.871 48.1042 333.535 45.59C333.535 45.0872 333.452 44.5844 333.452 44.0816C333.535 36.3715 334.206 28.7453 335.295 21.0352C335.798 17.5154 336.469 13.9956 337.223 10.5596C337.558 9.05109 337.223 8.79967 335.798 8.46445C332.194 7.79401 328.675 7.12358 325.071 6.53695C321.97 5.95031 321.719 6.11792 321.132 9.21869C321.132 9.38631 321.132 9.47011 321.132 9.63771C320.462 13.0737 320.127 16.5935 319.791 20.0295C319.205 27.572 318.786 35.1144 319.624 42.5731C320.043 46.0091 320.546 49.3613 322.222 52.3782C323.646 54.8924 325.658 56.4847 328.507 56.9875C330.518 57.3227 332.53 57.3227 334.457 56.6523C337.726 55.479 340.743 54.0543 343.592 52.1268C345.184 51.0374 345.184 51.0374 344.346 48.7746Z" fill="#00BC7D"/>
<path d="M364.543 52.8809C364.459 52.7133 364.459 52.5457 364.459 52.2943C363.454 45.7575 362.448 39.2207 361.778 32.6001C361.442 28.9127 360.94 25.2253 360.604 21.5379C360.52 20.4484 360.018 19.9456 359.012 19.8618C356.833 19.6104 354.654 19.2751 352.475 19.0237C351.134 18.9399 351.134 18.9399 350.883 20.3646C350.715 21.5379 350.632 22.7111 350.548 23.8844C349.877 29.4155 349.123 34.9466 349.207 40.5616C349.207 42.9919 349.207 45.3385 349.207 47.685C349.207 50.1153 349.542 52.4619 349.961 54.8084C350.38 56.6521 350.632 56.9035 352.559 56.6521C355.911 56.2331 359.347 55.6465 362.783 55.2275C364.627 55.0598 364.795 55.0598 364.543 52.8809ZM355.744 16.0067C356.833 16.0905 357.839 15.7553 358.761 15.0011C361.023 12.9898 362.029 10.4756 361.694 7.45863C361.359 4.86068 359.682 3.5198 357.336 2.59795C354.403 1.50848 351.972 2.34653 350.548 5.11209C349.793 6.62058 349.458 8.29669 349.542 10.0566C349.626 13.6602 351.972 15.9229 355.744 16.0067Z" fill="#00BC7D"/>
<path d="M391.78 25.0579C395.048 21.2029 398.316 17.4317 401.501 13.5766C402.423 12.4872 402.423 12.4872 401.585 11.3139C397.981 6.62081 392.953 4.60949 387.254 4.19046C383.651 3.85524 380.298 5.11232 377.114 6.537C374.348 7.79407 372.253 9.63779 370.828 12.3195C369.907 14.0794 369.236 15.9231 369.069 17.8507C368.482 24.0522 369.907 29.5834 375.186 33.5222C377.784 35.6173 380.55 37.461 383.315 39.3047C383.986 39.8076 384.74 40.3104 385.243 41.0646C386.668 42.9083 385.494 45.5901 383.232 45.9253C382.226 46.0929 381.388 45.8415 380.466 45.5063C378.622 44.5844 377.281 42.9921 376.024 41.5674C375.438 40.897 375.019 40.8132 374.432 41.3998C373.594 42.1541 372.756 42.9083 371.918 43.5788C371.331 44.0816 371.247 44.5844 371.499 45.2549C372.337 47.4338 373.426 49.4451 374.851 51.2888C376.862 53.7192 379.293 55.3953 382.393 55.8981C386.081 56.4847 389.517 56.0657 392.953 54.7248C395.802 53.6354 397.897 51.9593 399.657 49.3613C404.266 42.4055 401.669 34.025 396.137 30.0862C394.294 28.8291 392.366 27.572 390.355 26.5664C387.841 25.3931 385.41 24.136 382.98 22.7951C382.31 22.4599 381.807 22.0409 382.058 21.2028C382.31 20.3648 383.064 19.862 383.902 19.862C384.153 19.862 384.405 19.9458 384.656 20.0296C386.751 20.7838 388.679 21.7057 390.187 23.4656C390.606 24.0522 390.942 24.6389 391.78 25.0579Z" fill="#00BC7D"/>
<path fill-rule="evenodd" clip-rule="evenodd" d="M26.6576 21.7052C31.784 21.347 35.5951 16.2017 35.1814 10.2165C34.761 4.22563 30.2709 -0.338436 25.1506 0.0197168C20.0242 0.37787 16.2134 5.52319 16.6272 11.5074C17.0472 17.4993 21.5374 22.0634 26.6576 21.7052Z" fill="#00BC7D"/>
<path fill-rule="evenodd" clip-rule="evenodd" d="M56.7183 16.2516C54.9763 22.1563 49.4671 25.7263 44.4204 24.2315C39.3747 22.7366 36.6943 16.7457 38.442 10.8467C40.1839 4.94197 45.6931 1.37193 50.7388 2.86679C55.7855 4.36165 58.4659 10.3526 56.7183 16.2516Z" fill="#00BC7D"/>
<path fill-rule="evenodd" clip-rule="evenodd" d="M12.8656 30.587C16.8 28.4802 17.9858 23.0447 15.5215 18.45C13.0571 13.8544 7.87514 11.8347 3.94073 13.9472C0.00641522 16.0531 -1.1795 21.4886 1.28485 26.0842C3.7493 30.6789 8.9313 32.6985 12.8656 30.587Z" fill="#00BC7D"/>
<path fill-rule="evenodd" clip-rule="evenodd" d="M65.989 22.5268C62.3443 19.9575 56.9529 21.3221 53.945 25.5836C50.9371 29.846 51.4561 35.3801 55.0999 37.9552C58.7436 40.5245 64.136 39.1599 67.1439 34.8975C70.1518 30.636 69.6328 25.1019 65.989 22.5268Z" fill="#00BC7D"/>
<path fill-rule="evenodd" clip-rule="evenodd" d="M32.1669 23.7985C32.1669 23.7985 40.1218 23.7247 44.4521 30.2596H44.4646C48.794 36.7944 55.7607 47.7449 55.7607 47.7449C55.7607 47.7449 58.3856 62.185 43.3585 59.7143C39.6841 59.1091 36.0337 57.4294 32.1732 57.4294C28.3129 57.4294 24.6565 59.1091 20.9877 59.7143C5.96057 62.1917 8.5855 47.7449 8.5855 47.7449C8.5855 47.7449 15.5524 36.7944 19.8821 30.2596C24.2118 23.719 32.1669 23.7985 32.1669 23.7985Z" fill="#00BC7D"/>
</svg>
